<svg width="48" height="47" viewBox="0 0 48 47" fill="none" xmlns="http://www.w3.org/2000/svg">
<path d="M25.875 35.9766V24.7969H29.625L30.1875 20.4844H25.875V18.0234C25.875 17.3359 25.9141 16.9062 25.9922 16.7344C25.9922 16.6875 26.0547 16.5469 26.1797 16.3125C26.4609 15.7969 27.1875 15.5391 28.3594 15.5391H30.3516V11.6719C29.3047 11.5469 28.1953 11.4844 27.0234 11.4844C24.7578 11.4844 23.1484 12.3125 22.1953 13.9688C21.6484 14.8906 21.375 15.9531 21.375 17.1562V20.4844H17.6484V24.7969H21.375V35.9766H25.875ZM24 46.9219C20.9062 46.9219 17.9531 46.3359 15.1406 45.1641C12.3281 44.0078 9.82031 42.3281 7.61719 40.125C5.41406 37.9219 3.72656 35.4141 2.55469 32.6016C1.39844 29.7891 0.820312 26.8359 0.820312 23.7422C0.820312 20.6484 1.39844 17.6953 2.55469 14.8828C3.72656 12.0703 5.41406 9.5625 7.61719 7.35938C9.82031 5.15625 12.3281 3.47656 15.1406 2.32031C17.9531 1.14844 20.9062 0.5625 24 0.5625C27.0938 0.5625 30.0469 1.14844 32.8594 2.32031C35.6719 3.47656 38.1797 5.15625 40.3828 7.35938C42.5859 9.5625 44.2656 12.0703 45.4219 14.8828C46.5938 17.6953 47.1797 20.6484 47.1797 23.7422C47.1797 26.8359 46.5938 29.7891 45.4219 32.6016C44.2656 35.4141 42.5859 37.9219 40.3828 40.125C38.1797 42.3281 35.6719 44.0078 32.8594 45.1641C30.0469 46.3359 27.0938 46.9219 24 46.9219Z" fill="white"/>
</svg>
