<svg width="4700" height="3700" xmlns="http://www.w3.org/2000/svg" enable-background="new 0 0 6000 4000">
    <linearGradient id="a" x1="0.05" x2="0.88" y1="1.21" y2="0">
    <stop offset="0" stop-color="#fff"/>
    <stop offset="1" stop-color="#fff" stop-opacity="0"/>
    </linearGradient>
    <linearGradient id="b" x1="0.09" x2="0.84" y1="1.57" y2="-0.3">
    <stop offset="0" stop-color="#fff"/>
    <stop offset="1" stop-color="#fff" stop-opacity="0"/>
    </linearGradient>
    <linearGradient id="c" x1="0.11" x2="0.82" y1="1.96" y2="-0.63">
    <stop offset="0" stop-color="#fff"/>
    <stop offset="1" stop-color="#fff" stop-opacity="0"/>
    </linearGradient>
    <g class="layer">
    <title>Layer 1</title>
    <g id="svg_134">
    <path d="m4212.4,2837.39c0,0 -207.43,62.65 -308,163.21c-100.56,100.57 -220.91,32.97 -270.37,201.13c-49.46,168.16 408.86,39.57 562.18,-130.24c153.32,-169.8 139.85,-281.25 16.19,-234.1z" fill="#93c74b" id="svg_1"/>
    <path d="m4499.17,2026.3l-4200.66,0c0,0 -23.4,-265.24 54.63,-602c24.74,-106.8 59.69,-220.8 108.83,-335.81c174.15,-407.71 526.55,-828.18 1234.57,-986.14c1743.86,-389.08 2733.39,873.81 2802.63,1923.95z" fill="#bde9ff" id="svg_2"/>
    <path d="m834.32,1452.56l-316.55,0l-164.63,-28.26c24.74,-106.8 59.69,-220.8 108.83,-335.81c105.17,26.77 214.49,130.06 182.75,253.61c178.06,-62.65 189.6,110.46 189.6,110.46zm3108.86,-433.13c-118.24,0 -236.47,0 -354.71,0c-13.3,-35.77 2.35,-75.31 34.21,-91.21c28.16,-14.07 63.82,-7.09 86.14,17.73c0.8,-8.31 6.32,-57.93 45.6,-83.61c44.36,-28.99 115.08,-16.58 160.89,38.01c2.29,-5.36 20.25,-45.66 57,-53.21c41.05,-8.44 92.81,26.58 106.41,88.68c-45.18,27.87 -90.36,55.74 -135.54,83.61z" fill="#fff" id="svg_3"/>
    <path d="m1010.71,1539.93c-128.59,23.08 -333.97,21.26 -425.34,-112.1c-47.1,-68.74 -130.61,-105.16 -200.49,-124.32c-34.44,116.8 -56.03,228.19 -69.36,327.01c221.13,15.86 731.43,38.83 695.19,-90.59z" fill="#1ca3e5" id="svg_4"/>
    <path d="m4471.98,1807.8l-1843.67,8.98l-2330.77,11.33c0.74,-15.89 1.7,-32.55 2.89,-49.94c3.41,-48.96 8.81,-103.61 17.15,-162.47c5.52,-38.98 12.32,-79.81 20.68,-122.06c68.72,10.63 154.18,26.91 254.61,51.9c287.4,71.48 412.08,-68.48 672.09,-130.14c260.01,-61.67 497.07,265.12 707.91,273.98c210.83,8.87 614.85,-290.99 771.98,-284.38c13.71,0.58 25.5,0.01 35.77,-1.51c40.93,-6.03 57.83,-27.04 76,-50.22c29.55,-37.71 62.45,-81.15 207.74,-75.04c23.56,1 45.32,2.07 65.56,3.1c0,0 0,0 0.01,0c152.09,7.7 217.92,12.11 310.26,-50.03c29.39,-19.76 61.46,-46.28 99.84,-81.57c175.08,-160.94 431.25,-249.16 431.25,-249.16s39.06,-9.88 93.65,-16.76c57.08,76.15 108.73,155.24 154.84,236.34c40.73,71.59 77.13,144.75 109.17,218.84c16.97,39.17 32.7,78.63 47.21,118.23c42.59,116.26 74.61,233.93 95.83,350.58z" fill="#78c1e5" id="svg_5"/>
    <path d="m761.83,1606.17c0,0 270.86,0 421.99,-118.34c-132.6,49.9 -259.48,91.96 -421.99,118.34zm2383.73,-129.89c-89.89,-65.73 -364.94,-72.79 -364.94,-72.79c40.93,-6.03 57.83,-27.04 76,-50.22l14.34,-9.48c0,0 192.74,50.63 274.6,132.49z" fill="#56b6e5" id="svg_6"/>
    <path d="m2050.98,1778.16l-1750.55,0c3.41,-48.96 8.81,-103.6 17.15,-162.46c45.71,38.39 127.1,88.65 246.78,97.81c198.24,15.18 506.01,-10.23 688.44,0c182.43,10.25 151.41,0 306.63,0c155.24,0 491.55,64.65 491.55,64.65zm2277.96,-439.18c-92.33,44.81 -330.65,134.8 -638.45,58.35c-395.95,-98.37 -558.74,-115.81 -560.56,-116c62.85,-11.13 166.16,-48.98 310.26,-50.04c72.97,-0.53 156.38,8.38 250.3,34.97c195.15,55.27 414.66,-67.22 529.28,-146.11c40.73,71.59 77.13,144.75 109.17,218.83zm143.04,468.82l-1843.67,8.97l-516.32,-62.07c0,0 239.06,-79.36 376.7,-79.36c137.66,0 149.64,-43.08 239.27,-43.08c89.63,0 191.3,-13.19 402.59,0c211.3,13.18 314.04,36.35 387.15,-5.86c73.13,-42.22 338.76,-87.51 487.01,-113.37c108.85,-18.99 285.33,-43.9 371.44,-55.81c42.59,116.25 74.61,233.93 95.83,350.58z" fill="#1ca3e5" id="svg_7"/>
    <path d="m1049.43,1244.01c203.47,0 406.94,0 610.42,0c4.25,-53.47 -24.26,-103.83 -70.85,-126.04c-52.24,-24.91 -117.15,-9.64 -154.87,37.89c-19.29,-55.74 -69.91,-93.28 -125.21,-93.91c-69.15,-0.78 -109.06,56.53 -112.03,60.96c-2.09,-4.63 -25.26,-54.06 -70.85,-60.96c-47.83,-7.23 -104.18,34.8 -115.33,103.8c-12.12,36.73 8.3,59.62 38.72,78.26zm604.24,-485.52c99.47,0 198.93,0 298.4,0c20.63,-44.53 0.56,-97.58 -42.87,-117.05c-41.71,-18.7 -92.53,-0.85 -113.75,41.21c-6.66,-34.52 -36.29,-59.24 -69.24,-59.35c-28.52,-0.09 -54.95,18.27 -65.95,46.17c-17.6,-29.17 -49.7,-44.19 -77.48,-37.92c-36.94,8.34 -64.23,53.88 -49.46,100.56c40.12,8.8 80.23,17.59 120.35,26.38zm954.55,31.33c184.64,0 369.29,0 553.93,0c3.94,-2.53 67.17,-43.91 59.35,-75.84c-6.79,-27.73 -66.83,-47.07 -150.03,-32.97c-12.01,-61.19 -49.77,-112.85 -100.56,-128.59c-75.73,-23.47 -178.75,33.44 -207.73,145.07c-31.71,-14.2 -81.39,-29.72 -138.48,-19.78c-21.77,3.79 -77.32,13.47 -82.43,42.87c-3.91,22.55 22.65,52.19 65.95,69.24z" fill="#fff" id="svg_8"/>
    <path d="m916.84,931.77c90.99,63.47 153.41,156.66 234.94,230.58c167.1,151.52 381.14,251.39 607.02,268.83c237.11,18.3 469.86,-58 661.34,-196.36c97.32,-70.32 183.72,-155.4 257.8,-249.76c80.52,-102.55 144.25,-217.38 251.83,-295.65c215.93,-157.11 450.65,-158.72 690.56,-59.33c93.46,38.73 189.65,62.44 287.33,66.57c-31.42,-33.41 -64.05,-65.97 -97.87,-97.59c-67.59,-4.66 -145.16,-19.26 -227.86,-51.87c-185.85,-73.28 -405.71,-63.08 -583.5,28.7c-264.82,136.7 -355.68,452.14 -595.38,617.75c-233.6,161.39 -581.28,223.17 -856.52,153.63c-168.04,-42.46 -311.05,-148.56 -428.61,-272.65c-107.01,-112.96 -202.37,-240.71 -362.54,-277.3c-36.89,-8.42 -77.41,-18.33 -117.96,-25.08c-17.75,25.17 -34.59,50.58 -50.56,76.15c114.23,-5.84 224.38,9.71 329.98,83.38z" fill="#e5f6ff" id="svg_9" opacity="0.4"/>
    <path d="m826.07,992.59c281.67,4.17 361.18,125.41 745.17,178.05c206.8,28.36 394.11,51.72 606.69,-32.97c216.36,-86.18 351.14,-241.36 395.66,-296.75c140.61,-174.92 113.52,-265.88 217.62,-382.48c80.97,-90.69 232.82,-187.34 546.48,-191.98c-54.42,-27.94 -110.67,-53.75 -168.73,-77.25c-158.45,13.89 -372.28,83.97 -484.91,340.67c-192.88,439.63 -563.4,671.35 -922.4,622.7s-484.69,-81.02 -680.05,-150.92c-175.35,-62.74 -421.07,-68.93 -579.85,0.04c-7.48,15.24 -14.7,30.48 -21.65,45.72c98.46,-32.66 215.36,-56.76 345.97,-54.83z" fill="#e5f6ff" id="svg_10" opacity="0.4"/>
    <circle cx="1478.92" cy="731.45" fill="#ffd109" id="svg_11" r="222.23"/>
    <path d="m4445.19,1687.04c-14.5,-22.44 -684.7,-7.82 -724.5,-11.7c-93.79,6.2 -265.91,50.14 -366.59,29.62c-80.08,-24.74 -120.17,-33.14 -260.61,-29.05c-141.73,2.91 -321.84,16.77 -463.44,28.32c-256.25,28.68 -316.74,2.17 -551.06,41.5c-171.58,25.23 -398.68,11.34 -572.05,2.36c-115.47,-8.47 -182.78,7.61 -299.06,8.43c-25.42,0.21 -315.59,-0.69 -336.4,0.81c-204.7,22.14 -380.87,-23.08 -572.22,-3.71c-12.77,82.97 0.92,396.64 41.78,565.75c7.74,37.13 16.42,73.89 26.17,110.6c22.68,81.96 46.92,163.82 69.83,245.35c25.25,86.51 49.76,173.56 85.62,255.77c28.62,65.46 67.84,128.84 126.78,170.97c35.48,25.45 73.43,42.03 116.29,54.15c271.67,71.14 733.06,142.87 974.88,329.83c124.66,90.17 363.99,157.12 648.29,178.62c412.14,30.55 898.95,-58.12 1128.9,-433.56c29.7,-37.75 60.86,-74.17 94.06,-108.83c53.88,-56.42 113.03,-107.86 177.33,-152.01c56.5,-38.97 117.06,-71.8 178.9,-101.01c61.9,-29.66 125.63,-55.72 184.36,-91.4c60.33,-36.09 112.25,-85.73 148.64,-146.15c142.52,-261.28 276.25,-683.02 144.1,-944.66zm-3217.22,1548.63c-83.48,-27.88 -163.67,-55.65 -209.52,-65.7c-137.33,-30.13 -43.86,-81.17 -43.86,-81.17c44.08,-25.45 178.03,-8.38 303.93,32.8c290.68,97.31 388.36,282.33 -50.55,114.07zm1429.71,341.83c-139.6,59.48 -548.47,-1.22 -544.87,-136.72c18.26,-122.45 936.69,0.12 544.87,136.72z" fill="#93c74b" id="svg_12"/>
    <path d="m1882.21,1759.34l-455.32,1027.46l-148.37,334.8c-125.9,-41.18 -259.85,-58.25 -303.93,-32.8c0,0 -93.47,51.04 43.86,81.17c45.85,10.04 126.04,37.82 209.52,65.7l-12.46,28.1c-172.07,-45.34 -337.98,-76.07 -449.78,-107.56c-18.99,-5.36 -36.62,-11.53 -53.05,-18.61l314.25,-472.76l604.99,-910.14c35.03,1.48 72.94,2.79 111.72,3.68c46.05,1.05 93.36,1.5 138.57,0.96z" fill="#93c74b" id="svg_13"/>
    <path d="m2140.77,1735.79l-281.44,1270.2l-108.07,487.71c-3.68,-2.54 -7.24,-5.1 -10.65,-7.67c-140.22,-105.21 -336.37,-172.53 -525.1,-222.26l12.45,-28.1c166.62,55.65 346.29,111.71 291.69,28.1c-37.21,-57 -136.39,-107.93 -241.13,-142.17l148.37,-334.8l455.32,-1027.46c15.96,-0.19 31.64,-0.5 46.92,-0.96c58.73,-1.77 111.45,-5.64 149.86,-12.65c21.42,-3.91 41.99,-7.19 61.78,-9.94z" fill="#bcd845" id="svg_14"/>
    <path d="m2388.9,1721.3l0,1675.03c-127.31,-9.95 -265.98,-8.27 -276.09,44.46c-12.09,63.07 119.62,130.76 276.09,152.72l0,71.15c-275.37,-19.12 -520.98,-90.17 -637.64,-170.96l108.07,-487.71l281.45,-1270.2c98.49,-13.73 177.95,-14.46 248.12,-14.49z" fill="#93c74b" id="svg_15"/>
    <path d="m1125.27,1756.52l-755.73,682.13c-25.1,-92.78 -42.13,-181.67 -53.48,-263.55l555.42,-417.77c15.91,-0.5 32,-0.81 48.26,-0.81l205.53,0zm506.66,-1.82l-605,910.14c0,0 0,0 -0.01,0l-314.26,472.76c-128.95,-55.39 -184.57,-165.13 -243.85,-355.26l98.09,-110.68l819.57,-924.7c34.62,-1.64 72.74,-1.97 120.47,1.13c32.38,2.1 75.86,4.53 124.99,6.61z" fill="#bcd845" id="svg_16"/>
    <path d="m1386.47,1746.96l-819.57,924.7l-98.09,110.67c-8.93,-28.63 -17.92,-59.07 -27.28,-91.43c-18.4,-63.65 -38.12,-134.7 -61.2,-213.82c-3.76,-12.88 -7.36,-25.7 -10.79,-38.43l755.73,-682.13l82.61,0c69.9,0 119.07,-6.74 178.59,-9.56z" fill="#93c74b" id="svg_17"/>
    <path d="m4395.96,2427.55c-22.52,58.5 -47.69,114.93 -74.39,167.49c-23.44,46.14 -49.87,82.4 -79.07,112.27l-888.4,-1002.35c66.9,11.73 154.53,1.02 229.5,-10.67l812.36,733.26zm-1347.63,1164.45l-0.01,0c-205.79,70.49 -441.89,87.77 -659.42,72.66l0,-71.15c88.88,12.49 185.76,10.23 268.78,-16.01c229.15,-72.42 -9,-147.79 -54.4,-154.86c0,0 -102.83,-17.62 -214.38,-26.31l0,-1675.03c3.99,-0.01 7.94,-0.01 11.87,-0.01c27.38,0 116.54,-7.86 229.28,-17.06l300.94,1358.19l117.34,529.58z" fill="#bcd845" id="svg_18"/>
    <path d="m4470.55,2181.72l0,0.01c-18.12,82.72 -43.9,166.18 -74.59,245.82l-812.36,-733.26c58.87,-9.17 109.93,-18.95 137.08,-18.95l76.66,0l673.21,506.38zm-228.05,525.59c-88.29,90.34 -201.96,122.32 -335.55,192.34l-813.46,-1223.75c101.73,-2.11 182.99,1.49 214.83,15.7c13.62,6.08 29.05,10.42 45.78,13.36l888.4,1002.35z" fill="#93c74b" id="svg_19"/>
    <path d="m3906.96,2899.65c-4.03,2.12 -8.07,4.26 -12.13,6.44c-107.59,57.83 -227.75,141.76 -357.7,300.88l-84.43,-190.53l-589.28,-1329.72c80.08,-5.24 159.95,-9.39 230.07,-10.82l813.47,1223.75z" fill="#bcd845" id="svg_20"/>
    <path d="m3537.13,3206.97c-22.82,27.96 -45.96,58.24 -69.39,91.12c-101.04,141.79 -249.93,235.9 -419.41,293.91l-0.01,0l-117.34,-529.57l-300.93,-1358.2c71.53,-5.84 152.56,-12.23 233.36,-17.51l589.29,1329.72l84.43,190.53z" fill="#93c74b" id="svg_21"/>
    <path d="m1026.92,2664.84l-314.26,472.76c-128.95,-55.39 -184.57,-165.13 -243.85,-355.26c-8.93,-28.64 -17.92,-59.08 -27.28,-91.43c37.37,-6.75 79.56,-13.45 125.37,-19.25c132.77,-16.82 295.89,-26.06 460.02,-6.82zm2716.79,287.31c-81.4,30.04 -181.83,49.84 -291.01,64.29c-165.78,21.95 -351.71,31.58 -521.71,45.98l-0.01,0.01c-148.63,12.6 -285.09,28.86 -385.24,60.22c-49.66,15.55 -101.96,23.11 -156.84,23.72c-156.03,1.71 -332.92,-52.87 -529.57,-140.38c-134.97,-60.06 -279.24,-135.65 -432.44,-219.19c-3.75,-2.05 -7.51,-4.1 -11.27,-6.15c-119.51,-65.29 -254.43,-100.07 -388.69,-115.81l-314.25,472.76c16.43,7.08 34.06,13.25 53.05,18.61c111.8,31.5 277.71,62.22 449.78,107.56c188.74,49.73 384.88,117.05 525.1,222.27c3.41,2.56 6.97,5.12 10.65,7.66c116.66,80.79 362.27,151.84 637.64,170.96c217.54,15.12 453.63,-2.17 659.42,-72.66l0.01,0c169.49,-58.01 318.37,-152.12 419.41,-293.91c7.32,-10.27 14.62,-20.3 21.88,-30.07c1.42,-1.92 2.84,-3.82 4.27,-5.72c1.48,-1.98 2.96,-3.94 4.44,-5.9c1.44,-1.9 2.89,-3.81 4.33,-5.71s2.89,-3.79 4.34,-5.66c1.44,-1.89 2.88,-3.75 4.32,-5.61c2.16,-2.79 4.33,-5.55 6.48,-8.3c0.22,-0.27 0.44,-0.55 0.65,-0.83c3.01,-3.83 6.03,-7.63 9.04,-11.39c1.07,-1.34 2.15,-2.67 3.21,-4c0.72,-0.89 1.44,-1.78 2.15,-2.66c1.43,-1.77 2.86,-3.52 4.28,-5.27c1.02,-1.24 2.04,-2.48 3.04,-3.71c1.02,-1.24 2.04,-2.46 3.05,-3.69c1.01,-1.23 2.02,-2.45 3.04,-3.67c0.14,-0.16 0.27,-0.33 0.41,-0.49c1.89,-2.27 3.76,-4.51 5.65,-6.74c0.19,-0.24 0.38,-0.45 0.57,-0.69c2.1,-2.48 4.19,-4.94 6.28,-7.38c1.04,-1.23 2.09,-2.44 3.14,-3.66c1.03,-1.21 2.07,-2.42 3.12,-3.62c1.04,-1.2 2.08,-2.4 3.12,-3.59c2.08,-2.4 4.16,-4.77 6.25,-7.11c1.02,-1.18 2.06,-2.35 3.11,-3.51c2.05,-2.33 4.14,-4.65 6.2,-6.95c1.03,-1.14 2.06,-2.29 3.1,-3.42c2.06,-2.28 4.12,-4.53 6.19,-6.78c0.59,-0.64 1.18,-1.28 1.76,-1.92c0.73,-0.78 1.44,-1.56 2.16,-2.33c2.97,-3.22 5.93,-6.39 8.89,-9.51c1.89,-2 3.77,-3.98 5.66,-5.93c2.03,-2.14 4.07,-4.26 6.11,-6.36c4.07,-4.21 8.14,-8.34 12.2,-12.41c1.01,-1.01 2.02,-2.03 3.04,-3.04c1.02,-1.01 2.03,-2.02 3.03,-3c0.51,-0.5 1.01,-1.01 1.52,-1.51c0.51,-0.49 1,-1 1.51,-1.49c3.03,-2.98 6.06,-5.92 9.07,-8.83c1.59,-1.53 3.18,-3.04 4.76,-4.55c1.42,-1.36 2.84,-2.7 4.27,-4.04c1,-0.96 2.01,-1.9 3,-2.82c1.01,-0.95 2,-1.89 3,-2.8c1.01,-0.94 2,-1.86 2.99,-2.78c2.32,-2.15 4.64,-4.26 6.94,-6.36c0.96,-0.88 1.92,-1.74 2.87,-2.6c0.96,-0.87 1.92,-1.72 2.87,-2.58c0.74,-0.67 1.48,-1.33 2.22,-1.99c0.99,-0.89 1.98,-1.77 2.97,-2.63c0.17,-0.16 0.35,-0.33 0.53,-0.48c1.79,-1.59 3.6,-3.18 5.39,-4.74c2.22,-1.94 4.43,-3.86 6.64,-5.76c1.11,-0.94 2.21,-1.89 3.32,-2.84c5.51,-4.71 10.99,-9.3 16.46,-13.78c0.97,-0.8 1.96,-1.6 2.93,-2.39c2.91,-2.38 5.83,-4.71 8.72,-7.03c2.9,-2.31 5.8,-4.6 8.68,-6.85c1.92,-1.51 3.84,-3 5.76,-4.47c0.96,-0.75 1.92,-1.48 2.88,-2.21c0.95,-0.74 1.91,-1.45 2.87,-2.18c1.86,-1.42 3.71,-2.82 5.56,-4.2c0.14,-0.11 0.28,-0.22 0.41,-0.31c1.83,-1.38 3.65,-2.73 5.46,-4.06c1.86,-1.39 3.71,-2.74 5.56,-4.08c0.1,-0.07 0.19,-0.14 0.28,-0.2c1.85,-1.35 3.69,-2.69 5.53,-4c1.88,-1.36 3.77,-2.72 5.65,-4.04c1.68,-1.19 3.36,-2.37 5.02,-3.52c1.44,-1.02 2.87,-2.01 4.29,-3c0.1,-0.05 0.18,-0.12 0.27,-0.18c0.91,-0.64 1.84,-1.27 2.74,-1.9c0.09,-0.06 0.18,-0.12 0.28,-0.18c1.83,-1.26 3.67,-2.52 5.51,-3.76c1.84,-1.25 3.67,-2.49 5.49,-3.7c1.83,-1.23 3.66,-2.44 5.49,-3.64c1.81,-1.21 3.64,-2.4 5.45,-3.58c9.08,-5.92 18.09,-11.58 27.02,-17.03c3.57,-2.17 7.13,-4.32 10.68,-6.43c6.81,-4.04 13.57,-7.98 20.28,-11.79c2.04,-1.16 4.07,-2.3 6.09,-3.44c1.77,-0.99 3.54,-1.97 5.3,-2.94c4.71,-2.62 9.39,-5.16 14.04,-7.67c-49.42,12.15 -100.22,27.27 -151.11,46.05zm-2515.74,283.52c-83.48,-27.88 -163.67,-55.65 -209.52,-65.7c-137.33,-30.13 -43.86,-81.17 -43.86,-81.17c44.08,-25.45 178.03,-8.38 303.93,32.8c104.74,34.24 203.92,85.17 241.13,142.17c54.6,83.61 -125.07,27.55 -291.68,-28.1zm1429.71,341.83c-83.02,26.24 -179.9,28.5 -268.78,16.01c-156.46,-21.97 -288.18,-89.65 -276.09,-152.72c10.11,-52.73 148.78,-54.41 276.09,-44.46c111.55,8.69 214.38,26.31 214.38,26.31c45.4,7.07 283.55,82.44 54.4,154.86z" fill="#93c74b" id="svg_22" opacity="0.8"/>
    <path d="m303.49,1739.09c0,0 -11.51,52.53 -12.99,106.93c57.59,-48.25 122.62,-84.9 192.13,-109.33c-103.27,1.02 -179.14,2.4 -179.14,2.4z" fill="#9fcd5f" id="svg_23"/>
    <path d="m590.97,1735.88c-37.91,0.19 -74.59,0.48 -108.34,0.81c-69.51,24.43 -134.54,61.08 -192.13,109.33c-0.62,22.81 0.52,45.96 5.02,65.7c0,0 27.44,-3.48 75.18,-8.32c16.42,-13.26 32.77,-26.82 49,-41.21c54.54,-48.8 109.9,-90.46 171.27,-126.31z" fill="#76ae28" id="svg_24"/>
    <path d="m590.97,1735.88c-61.37,35.85 -116.73,77.51 -171.27,126.31c-16.23,14.39 -32.58,27.95 -49,41.21c38.75,-3.93 90.91,-8.75 152.61,-13.35c41.73,-38.4 91.05,-65.82 141.53,-98.39c32.38,-20.72 64.03,-39.99 96.99,-55.78c-56.01,-0.35 -114.79,-0.29 -170.86,0z" fill="#9fcd5f" id="svg_25"/>
    <path d="m761.83,1735.88c-32.96,15.79 -64.61,35.06 -96.99,55.78c-50.48,32.57 -99.81,59.99 -141.53,98.39c62.16,-4.63 134.04,-9.03 211.69,-12.03c2.73,-4.5 5.53,-9.01 8.47,-13.51c37.89,-62.19 103.55,-87.64 162.66,-126.42c-42.82,-1.2 -92.37,-1.89 -144.3,-2.21z" fill="#76ae28" id="svg_26"/>
    <path d="m906.13,1738.09c-59.11,38.79 -124.77,64.23 -162.66,126.42c-2.94,4.51 -5.74,9.01 -8.47,13.51c39.46,-1.53 80.42,-2.7 122.36,-3.35c4.3,-5 8.73,-9.93 13.31,-14.79c43.02,-48.54 98.67,-74.99 148.88,-115.48c-24.84,-2.92 -64.78,-4.95 -113.42,-6.31z" fill="#9fcd5f" id="svg_27"/>
    <path d="m1029.35,1745.73c-2.94,-0.46 -6.21,-0.9 -9.8,-1.33c-50.21,40.49 -105.86,66.94 -148.89,115.48c-4.57,4.86 -9,9.79 -13.3,14.79c44.48,-0.7 90.06,-0.83 136.14,-0.19c4.34,-4.98 8.87,-9.85 13.61,-14.6c38.16,-39.31 86.72,-61.28 126.04,-99.44c3.87,-3.42 7.7,-6.78 11.51,-10.12c-50.34,0.18 -91.6,-0.88 -115.31,-4.59zm309.62,62.12c33.95,-18.93 63.48,-40.82 93.36,-62.11c-46.94,0.28 -97.27,1.33 -146.28,2.36c-50.53,44.58 -100.24,82.69 -158.68,116.41c-7.44,4.24 -15.59,8.25 -23.03,13.02c46.01,1.93 92.02,4.74 137.44,8.61c16.69,-14.16 34.39,-27.24 52.1,-41.29c16.18,-12.72 27.75,-27.75 45.09,-37z" fill="#76ae28" id="svg_28"/>
    <path d="m1434.38,1745.73c-0.68,0 -1.37,0.01 -2.05,0.01c-29.88,21.29 -59.41,43.17 -93.36,62.11c-17.34,9.25 -28.91,24.28 -45.09,37c-17.71,14.04 -35.41,27.13 -52.1,41.29c44.29,3.77 88.01,8.55 130.64,14.5c58.98,-52.68 121.18,-98.46 181.8,-151.28c-34.17,-2.08 -75.45,-3.88 -119.84,-3.63z" fill="#9fcd5f" id="svg_29"/>
    <path d="m1631.92,1754.7c-15.88,-0.86 -43.16,-3.25 -77.7,-5.34c-60.62,52.83 -122.82,98.6 -181.8,151.28c50.96,7.1 100.36,15.86 147.21,26.59c1.08,-1.62 2.15,-3.26 3.2,-4.91c12.73,-20.01 25.07,-40.67 37.92,-61c8.1,-12.82 16.4,-25.51 25.14,-37.83c5.35,-7.54 12.13,-13.89 17.81,-21.18c5.86,-7.52 10.07,-16.09 14.77,-24.36c0.24,-0.4 24.51,-22.65 13.45,-23.25z" fill="#76ae28" id="svg_30"/>
    <path d="m1144.66,1750.32c-3.81,3.34 -7.64,6.7 -11.51,10.12c-39.32,38.16 -87.88,60.13 -126.04,99.44c-4.74,4.74 -9.27,9.61 -13.61,14.59c36.73,0.51 73.78,1.5 110.84,3.05c7.44,-4.76 15.59,-8.77 23.03,-13.01c58.44,-33.72 108.15,-71.83 158.68,-116.42c-50.2,1.05 -99.01,2.08 -141.39,2.23z" fill="#9fcd5f" id="svg_31"/>
    <path d="m3221.26,1666.68c0,0 454.75,253.71 691.05,415.49c-155.61,-231.64 -490.44,-372.13 -490.44,-372.13l-200.61,-43.36z" fill="#93c74b" id="svg_32" opacity="0.8"/>
    <path d="m3924.61,2094.47c-135.29,-129.5 -296.02,-212.76 -463.68,-291.39c-116.32,-54.08 -85.56,-59.79 -199.55,-122.29c-5.88,1.01 -68.78,-34.8 -167.89,-33.7c-126.93,1.41 -222.53,39.14 -222.53,39.14s103.9,12.28 222.53,81.05c82.1,47.59 162.17,137.37 257.06,206.65c232,169.39 213.68,183.68 301.24,271.24s457.66,557.12 509.1,527.43c13.13,-7.58 111.9,-78.51 155.29,-155.01c-43.54,-90.01 -96.73,-174.79 -162.62,-256.01c-76.32,-93.66 -142.23,-183.85 -228.95,-267.11z" fill="#93c74b" id="svg_33"/>
    <path d="m851.85,2450.62c0,0 73.09,-361.56 210,-498.46l0,11.47c0,0 -41.85,51.2 -86.9,149.61c-42.22,92.2 -86.52,227.49 -123.1,353.62c-8.79,8.8 0,-16.24 0,-16.24z" fill="#0d9214" id="svg_34"/>
    <path d="m1046.74,1968.46c0,0 -6.32,113.56 76.96,85.69c83.29,-27.88 -49.45,-101.99 -49.45,-101.99s218.2,8.17 172.17,-70.97c-46.02,-79.13 -157.42,23.09 -157.42,23.09s93.13,-162.67 -27.15,-136.57c-120.29,26.11 -15.22,144 -15.22,144s-136.39,-103.05 -151.23,-17.33c-14.84,85.73 103.95,57.78 103.95,57.78s-134.64,75.46 -31.92,101.99c102.72,26.53 79.31,-85.69 79.31,-85.69z" fill="#fff" id="svg_35"/>
    <circle cx="1046.47" cy="1939.94" fill="#ffd109" id="svg_36" r="17.12"/>
    <path d="m630.07,2235.14c0,0 -119.53,-195.09 -115.19,-315.11l4.85,5.21c0,0 2.62,40.93 23.73,104.66c19.78,59.72 56.8,139.87 93.47,212.62c-0.28,7.7 -6.86,-7.38 -6.86,-7.38z" fill="#0d9214" id="svg_37"/>
    <path d="m514.91,1933.82c0,0 45.1,54.25 71.15,6.41s-65.54,-25.43 -65.54,-25.43s89.19,-70.2 34.86,-86.7s-48.39,58.72 -48.39,58.72s-26.42,-113.23 -70.02,-50.56s53.92,71.83 53.92,71.83s-105.49,10.81 -76.01,56.02s71.62,-17.68 71.62,-17.68s-29.28,91.15 28.59,59.81c57.86,-31.34 -0.18,-72.42 -0.18,-72.42z" fill="#fff" id="svg_38"/>
    <circle cx="502.74" cy="1920.98" fill="#ffd109" id="svg_39" r="10.62"/>
    <path d="m923.16,2397.24c-3.52,-83.53 -7.07,-167.39 -22.28,-249.6c-12.68,-68.52 -33.7,-136.16 -68.22,-196.97c-32.67,-57.54 -81.76,-104.32 -111.38,-163.66c-22.66,-45.38 -30.46,-95.88 -39.71,-145.21c-7.08,-37.71 -18.28,-76.62 -52.09,-99.04c-16.02,-10.62 -37.17,-13.98 -55.79,-9.91c6.14,45.43 25.4,124.05 82.57,239.13c97.68,196.59 156.21,380.83 146.73,563.82c-5.7,110.02 10.35,206.9 24.05,268.22c12.1,-2.52 24.33,-7.46 36.46,-15.25c29.53,-18.97 47.36,-52.39 54.97,-86.65c7.6,-34.27 6.17,-69.81 4.69,-104.88z" fill="#86c546" id="svg_40"/>
    <path d="m802.99,2335.8c9.48,-183 -49.05,-367.23 -146.73,-563.82c-57.17,-115.08 -76.43,-193.7 -82.57,-239.13c-6.53,1.42 -12.74,3.78 -18.31,7.04c4.9,61.63 24.28,169.88 92.23,314.93c110.04,234.93 6.24,311.2 55.67,498.71c43.09,163.49 94.66,224.61 113.73,252.04c3.33,-0.34 6.68,-0.85 10.04,-1.55c-13.71,-61.32 -29.76,-158.2 -24.06,-268.22z" fill="#6cbc39" id="svg_41"/>
    <path d="m647.61,1854.82c-67.95,-145.05 -87.34,-253.31 -92.23,-314.93c-8.61,5.04 -15.7,12.27 -20.02,21.74c-10.86,23.83 -1.69,51.48 6.65,76.3c39.97,118.95 59.13,244.86 56.37,370.31c-1.66,74.83 -10.8,151.61 11.31,223.12c15.73,50.88 45.94,96.34 58.23,148.4c7.61,32.2 3.18,64.44 8.33,96.69c10.84,67.9 72.49,135.98 140.76,129.12c-19.07,-27.43 -70.64,-88.55 -113.73,-252.03c-49.43,-187.53 54.37,-263.8 -55.67,-498.72z" fill="#0d9214" id="svg_42"/>
    <path d="m615.48,2882.95c-25.27,0.8 -51.1,-14.95 -74.29,-23.05c-2.66,-0.93 -5.31,-1.86 -7.92,-2.81c-32.69,-11.77 -61.92,-24.98 -88.42,-49.02c-40.31,-36.56 -68.23,-84.61 -93.04,-133.04c-24.83,-48.43 -47.42,-98.44 -79.67,-142.28c-32.68,-44.42 -74.38,-81.29 -111.33,-122.21c-36.96,-40.93 -70.14,-88.06 -80.08,-142.31c-3.12,-17.02 -2.74,-37.26 10.64,-48.25c1.34,-1.1 2.74,-2.06 4.17,-2.87c17.03,-9.65 40.22,0.04 58.1,10.24c120.97,69.05 236.85,147.07 346.35,233.19c88.35,69.48 177.49,152.39 199.98,262.53c12.08,59.15 -7.38,157.41 -84.49,159.88z" fill="#86c546" id="svg_43"/>
    <path d="m764.59,2682.9c-2.46,12.95 -6.89,25.32 -15.69,34.92c-7.82,8.53 -15.81,14.12 -23.87,17.32c-47.33,18.85 -97.14,-43.96 -127.59,-72.68c-56.54,-53.32 -103.45,-97.43 -134.41,-171.31c-32.41,-77.34 -45.55,-161.15 -58.44,-244.01c-12.98,-83.46 -25.95,-166.92 -38.94,-250.4c-1.45,-9.34 -2.65,-19.67 0.32,-28.28c0.96,-2.8 2.36,-5.41 4.33,-7.75c1.18,-1.41 2.53,-2.61 3.98,-3.65c8.5,64.75 31.73,163.93 94.54,260.05c96.58,147.82 266.76,277.68 295.77,465.79z" fill="#6cbc39" id="svg_44"/>
    <path d="m725.03,2735.14c-47.33,18.85 -97.14,-43.96 -127.59,-72.68c-56.54,-53.32 -103.45,-97.43 -134.41,-171.31c-32.41,-77.34 -45.56,-161.15 -58.44,-244.01c-12.98,-83.46 -25.96,-166.92 -38.94,-250.4c-1.45,-9.34 -2.65,-19.67 0.32,-28.28c12.38,74.84 45.39,252.27 92.46,338.81c58.12,106.84 241.42,343.32 266.6,427.87z" fill="#0d9214" id="svg_45"/>
    <path d="m767.17,2662.42c-0.55,6.78 -1.3,13.7 -2.58,20.48c-29.01,-188.11 -199.19,-317.97 -295.77,-465.79c-62.82,-96.12 -86.05,-195.3 -94.55,-260.05c2.58,-1.85 5.52,-3.15 8.64,-3.95c6.82,-1.73 14.51,-1.04 21.12,1.59c11.34,4.51 20.23,13.47 28.72,22.23c91.28,94.21 178.45,194.06 242.07,308.77c25,45.09 46.23,92.73 62.16,141.88c24.59,75.93 36.54,155.47 30.19,234.84z" fill="#86c546" id="svg_46"/>
    <path d="m735.39,2484.59c0,0 -70.23,-115.39 -179.7,-248.94c-87.2,-106.39 -150.6,-234.73 -172.78,-282.54c6.82,-1.73 14.51,-1.04 21.12,1.59c11.34,4.51 20.23,13.47 28.72,22.23c91.28,94.21 178.45,194.06 242.08,308.77c25,45.09 46.23,92.73 62.15,141.89c2.83,37.52 -1.59,57 -1.59,57z" fill="#bbd945" id="svg_47"/>
    <g id="svg_48">
        <path d="m2774.28,2176.97c-2.28,1.45 -4.56,2.9 -6.85,4.36c-6.12,3.91 -14.25,2.4 -18.51,-3.48c-21.68,-29.96 -51.19,-54.86 -87.19,-71.21c-35.97,-16.34 -74.08,-22.18 -110.88,-18.82c-7.27,0.66 -13.82,-4.41 -14.92,-11.64c-0.4,-2.68 -0.81,-5.36 -1.21,-8.03c-1.19,-7.85 4.5,-15.02 12.4,-15.76c42.91,-4.02 87.37,2.74 129.35,21.81s76.31,48.1 101.52,83.05c4.64,6.44 2.98,15.45 -3.71,19.72zm-60.16,38.44c-2.29,1.47 -4.58,2.93 -6.86,4.39c-6.05,3.87 -14.02,2.4 -18.39,-3.3c-14.42,-18.84 -33.54,-34.5 -56.61,-44.98c-23.08,-10.48 -47.44,-14.58 -71.12,-13.04c-7.17,0.46 -13.52,-4.58 -14.58,-11.68c-0.4,-2.67 -0.8,-5.35 -1.21,-8.04c-1.19,-7.96 4.68,-15.21 12.72,-15.77c29.59,-2.07 60.08,2.99 88.92,16.09c28.86,13.11 52.72,32.74 70.64,56.37c4.87,6.42 3.28,15.62 -3.51,19.96zm-60.33,38.63c-2.33,1.49 -4.64,2.97 -6.91,4.42c-5.72,3.67 -13.27,2.61 -17.75,-2.51c-7.08,-8.08 -15.95,-14.82 -26.35,-19.55c-10.4,-4.72 -21.3,-6.97 -32.04,-6.97c-6.8,-0.01 -12.57,-4.99 -13.58,-11.72c-0.39,-2.67 -0.8,-5.37 -1.21,-8.11c-1.22,-8.21 5.04,-15.69 13.35,-15.8c16.14,-0.2 32.57,3.05 48.22,10.16c15.65,7.11 28.92,17.34 39.39,29.64c5.38,6.32 3.87,15.96 -3.12,20.44zm-44.67,70.95c-9.68,21.31 -34.81,30.76 -56.14,21.07c-21.32,-9.68 -30.74,-34.82 -21.06,-56.13c6.18,-13.6 18.63,-22.36 32.37,-24.4c7.8,-1.19 16.04,-0.19 23.76,3.32c7.72,3.51 13.87,9.04 18.12,15.71c7.52,11.67 9.12,26.84 2.95,40.43z" fill="#ffd109" id="svg_49"/>
    </g>
    <g id="svg_50" opacity="0.5">
        <polygon fill="#fff" id="svg_51" points="2330.931884765625,2654.801025390625 2330.931884765625,2654.801025390625 2330.931884765625,2654.801025390625 "/>
        <polygon fill="#fff" id="svg_52" points="3374.35205078125,2337.7060546875 2918.00390625,2790.77294921875 2953.85009765625,2826.8798828125 3396.02197265625,2387.885986328125 4115.091796875,2363.764892578125 3578.18017578125,2923.4169921875 3192.55810546875,3364.26806640625 2881.093017578125,2817.85009765625 2349.656982421875,2607.4951171875 2330.931884765625,2654.801025390625 2845.7451171875,2858.577880859375 3183.77099609375,3451.591064453125 3615.703125,2957.797119140625 4238.40478515625,2308.720947265625 "/>
        <rect fill="#fff" height="459.01" id="svg_53" transform="rotate(-23.873 3501.05 2637.61)" width="50.88" x="3475.24" y="2407.91"/>
        <rect fill="#fff" height="498.02" id="svg_54" transform="rotate(-83.149 3272.89 2901.66)" width="50.88" x="3247.57" y="2652.78"/>
    </g>
    <g id="svg_55">
        <circle cx="2878.32" cy="2847.28" fill="#389fd9" id="svg_56" r="252.24"/>
        <circle cx="3336.52" cy="2378.91" fill="#389fd9" id="svg_57" r="252.24"/>
        <circle cx="3188.16" cy="3407.93" fill="#389fd9" id="svg_58" r="252.24"/>
        <circle cx="3617.27" cy="2931.49" fill="#389fd9" id="svg_59" r="252.24"/>
        <circle cx="4146.85" cy="2342.81" fill="#389fd9" id="svg_60" r="252.24"/>
        <path d="m2878.32,2695.61c0,0 -181.76,285.21 0,285.21c181.75,0 0,-285.21 0,-285.21zm606.96,-291.77c0,-37.75 -30.6,-68.35 -68.35,-68.35c-2.83,0 -5.62,0.2 -8.36,0.53c0.32,-2.8 0.51,-5.64 0.51,-8.53c0,-40.91 -33.17,-74.08 -74.09,-74.08c-40.91,0 -74.08,33.17 -74.08,74.08c0,4.2 0.37,8.31 1.04,12.32c-5.5,-1.45 -11.26,-2.23 -17.21,-2.23c-37.17,0 -67.31,30.13 -67.31,67.3s30.14,67.3 67.31,67.3l183.12,0l-0.76,-0.75c32.92,-4.92 58.18,-33.3 58.18,-67.59zm111.66,536.77c46.13,48.49 31.01,137.75 31.01,137.75s-89.92,10.66 -136.04,-37.82c-46.13,-48.49 -31.01,-137.76 -31.01,-137.76s89.91,-10.65 136.04,37.83z" fill="#fff" id="svg_61"/>
        <path d="m3648.1,2938.25c-42.41,51.77 -20.72,139.67 -20.72,139.67s90.46,3.97 132.86,-47.8c42.41,-51.77 20.72,-139.67 20.72,-139.67s-90.45,-3.97 -132.86,47.8z" fill="#fff" id="svg_62"/>
        <path d="m3684.91,2880.64c-2.11,66.88 -76.27,118.82 -76.27,118.82s-70.74,-56.5 -68.63,-123.39c2.11,-66.89 76.27,-118.83 76.27,-118.83s70.74,56.51 68.63,123.4zm483.91,-506.24l0,-183.17c0,-19.06 -15.46,-34.52 -34.52,-34.52l0,0c-19.06,0 -34.52,15.46 -34.52,34.52l0,183.17c-16.36,11.08 -27.12,29.82 -27.12,51.07c0,34.04 27.6,61.64 61.64,61.64c34.04,0 61.64,-27.6 61.64,-61.64c0,-21.25 -10.75,-43.15 -27.12,-51.07zm120.99,-100.57l-71.84,0c-5.19,0 -9.39,-4.2 -9.39,-9.39l0,-9.89c0,-5.18 4.2,-9.38 9.39,-9.38l71.84,0c5.18,0 9.38,4.2 9.38,9.38l0,9.89c0,5.19 -4.2,9.39 -9.38,9.39zm0,62.41l-71.84,0c-5.19,0 -9.39,-4.2 -9.39,-9.38l0,-9.89c0,-5.19 4.2,-9.39 9.39,-9.39l71.84,0c5.18,0 9.38,4.2 9.38,9.39l0,9.89c0,5.18 -4.2,9.38 -9.38,9.38z" fill="#fff" id="svg_63"/>
        <path d="m4148.61,2393l0,-75.75l-28.62,0l0,75.75c-13.32,5.6 -22.68,18.76 -22.68,34.12c0,20.42 16.56,36.98 36.99,36.98s36.98,-16.56 36.98,-36.98c0.01,-15.36 -9.35,-28.53 -22.67,-34.12z" fill="#ef4821" id="svg_64"/>
        <path d="m4148.61,2216.02c0,-7.9 -6.41,-14.31 -14.31,-14.31s-14.31,6.41 -14.31,14.31l0,101.23l28.62,0l0,-101.23z" fill="#8ac6e9" id="svg_65"/>
    </g>
    <g id="svg_66">
        <path d="m3738.65,1450.31l-25.14,0l-8.88,701.69c11.74,-5.47 25.48,-6.67 42.91,0l-8.89,-701.69z" fill="#fff" id="svg_67"/>
        <path d="m3714.23,1471.9c0,0 -30.93,22.17 -42.27,60.83s-68.44,294.45 -68.04,297.43c1.6,12.26 10.93,13.98 11.6,6.7c0,0 106.8,-272.58 106.8,-304.02c0,-31.44 3.76,-52.69 3.76,-52.69l-11.85,-8.25zm33.86,-10.21c0,0 34.66,15.7 73.81,6.19c39.15,-9.51 289.22,-87.96 291.6,-89.79c9.82,-7.52 6.64,-16.46 0,-13.4c0,0 -289.45,43.8 -316.68,59.52s-47.51,23.09 -47.51,23.09l-1.22,14.39zm-25.78,-24.22c0,0 -3.73,-37.87 -31.54,-67.02c-27.81,-29.15 -220.78,-206.49 -223.56,-207.64c-11.42,-4.74 -17.57,2.48 -11.61,6.7c0,0 182.66,228.78 209.89,244.5s43.75,29.6 43.75,29.6l13.07,-6.14z" fill="#fff" id="svg_68"/>
        <circle cx="3728.21" cy="1457.02" fill="#c2dcda" id="svg_69" r="28.42"/>
    </g>
    <g id="svg_70">
        <polygon fill="#fff" id="svg_71" points="3004.173095703125,1167.240966796875 2985.969970703125,1167.240966796875 2979.533935546875,1675.343017578125 3010.60791015625,1675.343017578125 "/>
        <path d="m2986.49,1182.88c0,0 -22.4,16.05 -30.61,44.04c-8.21,28 -49.55,213.22 -49.27,215.38c1.16,8.88 7.92,10.12 8.4,4.85c0,0 77.34,-197.38 77.34,-220.15s2.72,-38.15 2.72,-38.15l-8.58,-5.97zm24.52,-7.4c0,0 25.1,11.37 53.45,4.48c28.35,-6.88 209.42,-63.69 211.15,-65.01c7.11,-5.45 4.81,-11.92 0,-9.71c0,0 -209.6,31.72 -229.32,43.1c-19.72,11.39 -34.4,16.72 -34.4,16.72l-0.88,10.42zm-18.67,-17.54c0,0 -2.7,-27.42 -22.84,-48.53c-20.14,-21.1 -159.87,-149.52 -161.88,-150.35c-8.27,-3.43 -12.73,1.79 -8.41,4.85c0,0 132.27,165.66 151.99,177.05c19.72,11.38 31.68,21.43 31.68,21.43l9.46,-4.45z" fill="#fff" id="svg_72"/>
        <circle cx="2996.61" cy="1172.1" fill="#c2dcda" id="svg_73" r="20.58"/>
    </g>
    <g id="svg_74">
        <polygon fill="#fff" id="svg_75" points="3341.342041015625,1154.8330078125 3318.30908203125,1154.8330078125 3310.1669921875,1797.7259521484375 3349.48388671875,1797.7259521484375 "/>
        <path d="m3318.96,1174.62c0,0 -28.33,20.31 -38.72,55.73c-10.39,35.42 -62.7,269.77 -62.34,272.5c1.47,11.24 10.01,12.81 10.63,6.14c0,0 97.85,-249.73 97.85,-278.54c0,-28.81 3.45,-48.28 3.45,-48.28l-10.87,-7.55zm31.03,-9.36c0,0 31.76,14.38 67.63,5.67c35.87,-8.71 264.98,-80.59 267.16,-82.26c9,-6.9 6.09,-15.08 0,-12.28c0,0 -265.2,40.13 -290.15,54.53s-43.53,21.15 -43.53,21.15l-1.11,13.19zm-23.62,-22.19c0,0 -3.42,-34.7 -28.9,-61.4c-25.48,-26.71 -202.28,-189.19 -204.83,-190.25c-10.46,-4.34 -16.1,2.28 -10.63,6.14c0,0 167.35,209.61 192.3,224.02s40.08,27.12 40.08,27.12l11.98,-5.63z" fill="#fff" id="svg_76"/>
        <circle cx="3331.77" cy="1160.98" fill="#c2dcda" id="svg_77" r="26.03"/>
    </g>
    <circle cx="3693.76" cy="703.51" fill="#fff" id="svg_78" r="73.43"/>
    <path d="m1133.45,848.6c79.09,0 158.17,0 237.25,0c12.3,-27.24 6.91,-58.35 -12.36,-76.62c-24.4,-23.13 -67.85,-22.59 -95.55,5.77c-16.86,-22.21 -46.22,-24.28 -60.96,-10.71c-10.53,9.69 -13.57,27.33 -7.42,43.66c-1.06,-1.2 -15.57,-17.07 -32.95,-14c-17.93,3.17 -33.08,25.5 -28.01,51.9z" fill="#fff" id="svg_79"/>
    <g id="svg_80">
        <path d="m3307.69,3437.07c0,-61.45 -42.03,-113.09 -98.92,-127.73l0,255.47c56.89,-14.65 98.92,-66.28 98.92,-127.74zm-236.12,0c0,-61.45 42.03,-113.09 98.91,-127.73l0,255.47c-56.88,-14.65 -98.91,-66.28 -98.91,-127.74z" fill="#fff" id="svg_81"/>
        <polygon fill="none" id="svg_82" points="3284.050048828125,3322.678955078125 3284.051025390625,3322.679931640625 3284.051025390625,3322.678955078125 "/>
        <polygon fill="none" id="svg_83" points="3344.98388671875,3433.9990234375 3344.985107421875,3434 3344.985107421875,3433.9990234375 "/>
        <path d="m3291.08,3338.48c2.47,-3.54 3.83,-7.04 4.61,-9.71c0.78,-2.67 0.98,-4.52 1.01,-4.81c0.36,-3.5 -2.19,-6.62 -5.68,-6.97c-3.48,-0.35 -6.59,2.17 -6.96,5.64l0,0c0,0.01 -0.12,1 -0.53,2.43c-0.31,1.07 -0.78,2.39 -1.45,3.74c-1.02,2.03 -2.47,4.08 -4.52,5.71c-1.03,0.81 -2.22,1.54 -3.65,2.12c-1.43,0.59 -3.11,1.05 -5.15,1.28c-3.49,0.39 -6.01,3.54 -5.61,7.03c0.39,3.49 3.54,6 7.03,5.61c5.77,-0.64 10.6,-2.64 14.3,-5.34c2.79,-2.01 4.95,-4.37 6.6,-6.73zm-7.03,-15.8l0,0c0,0 0,0 0,0l0,0zm69.58,108.82c-3.07,-1.69 -6.92,-0.58 -8.62,2.46l0,0c-0.02,0.04 -2,3.43 -5.8,6.58c-1.89,1.58 -4.23,3.11 -7,4.24c-2.78,1.13 -6.01,1.88 -9.86,1.88c-3.56,0 -7.69,-0.65 -12.5,-2.38c-3.31,-1.19 -6.95,0.52 -8.14,3.82c-1.2,3.31 0.52,6.95 3.82,8.14c6.05,2.19 11.69,3.14 16.82,3.14c5.73,0.01 10.79,-1.19 15.06,-2.99c6.41,-2.7 11,-6.68 14.02,-9.97c3.02,-3.31 4.51,-5.95 4.69,-6.28c1.7,-3.07 0.58,-6.94 -2.49,-8.64zm-8.65,2.5l0,0c0.01,0 0.01,0 0,0l0,0zm-10.27,108.92l0,0l-0.01,0l0,0c-0.14,0.02 -5.16,0.88 -11.95,0.88c-3.62,0 -7.74,-0.25 -11.87,-0.95c-3.1,-0.53 -6.2,-1.32 -9.11,-2.43c-4.36,-1.67 -8.24,-4.03 -11.28,-7.3c-1.52,-1.64 -2.85,-3.52 -3.96,-5.74c-1.1,-2.21 -1.98,-4.77 -2.56,-7.79c-0.65,-3.45 -3.98,-5.72 -7.43,-5.06c-3.45,0.65 -5.72,3.98 -5.06,7.43c1.36,7.26 4.28,13.33 8.19,18.09c2.93,3.57 6.38,6.4 10.03,8.61c5.5,3.3 11.44,5.23 17.14,6.37c5.71,1.14 11.21,1.48 15.91,1.49c8.15,-0.01 13.94,-1.04 14.19,-1.08c3.46,-0.62 5.76,-3.93 5.14,-7.39c-0.62,-3.45 -3.92,-5.75 -7.37,-5.13zm-227.14,-205.01c-3.74,-0.44 -6.28,-1.58 -8.27,-3.01c-1.49,-1.07 -2.68,-2.35 -3.63,-3.72c-1.44,-2.04 -2.33,-4.29 -2.83,-5.98c-0.25,-0.85 -0.4,-1.55 -0.48,-2c-0.04,-0.23 -0.06,-0.4 -0.08,-0.49l-0.01,-0.08l0,0c-0.38,-3.47 -3.48,-5.99 -6.96,-5.64c-3.49,0.35 -6.04,3.47 -5.69,6.97l0,0c0.03,0.26 0.19,1.75 0.78,3.95c0.43,1.66 1.11,3.71 2.17,5.95c1.58,3.34 4.05,7.13 7.94,10.32c1.93,1.59 4.21,3.01 6.83,4.12c2.62,1.1 5.57,1.89 8.81,2.25c3.49,0.39 6.64,-2.12 7.03,-5.61c0.39,-3.49 -2.12,-6.64 -5.61,-7.03zm-53.59,121.47c5.13,0 10.76,-0.95 16.82,-3.14c3.3,-1.19 5.02,-4.83 3.82,-8.14c-1.19,-3.3 -4.83,-5.01 -8.14,-3.82c-4.81,1.73 -8.94,2.38 -12.5,2.38c-3.98,0 -7.28,-0.8 -10.13,-1.99c-4.24,-1.78 -7.46,-4.53 -9.58,-6.85c-1.05,-1.15 -1.83,-2.19 -2.32,-2.9c-0.25,-0.35 -0.42,-0.62 -0.52,-0.78l-0.1,-0.16l-0.01,-0.02l0,0c-1.7,-3.04 -5.55,-4.15 -8.62,-2.46c-3.07,1.7 -4.19,5.57 -2.49,8.64c0.24,0.43 2.79,5.01 8.24,9.72c2.73,2.35 6.2,4.73 10.47,6.53c4.26,1.8 9.33,3 15.06,2.99z" fill="#fff" id="svg_84"/>
        <polygon fill="#fff" id="svg_85" points="3020.2080078125,3440.14501953125 3020.2080078125,3440.14404296875 3020.2080078125,3440.14404296875 "/>
        <path d="m3099.79,3514.53c-3.45,-0.66 -6.78,1.61 -7.43,5.06c-1.04,5.36 -3,9.28 -5.54,12.4c-1.91,2.33 -4.19,4.22 -6.76,5.77c-3.86,2.34 -8.41,3.88 -13.06,4.8c-4.64,0.93 -9.35,1.24 -13.42,1.24c-3.53,0 -6.58,-0.23 -8.72,-0.46c-1.07,-0.11 -1.91,-0.22 -2.46,-0.3c-0.28,-0.04 -0.49,-0.07 -0.62,-0.1l-0.13,-0.02l-0.02,0l0,0l-0.01,0l0,0c-3.45,-0.62 -6.75,1.68 -7.37,5.14c-0.62,3.45 1.68,6.76 5.14,7.38l0,0c0.25,0.04 6.04,1.08 14.19,1.08c4.18,0 8.99,-0.27 14.01,-1.13c3.77,-0.65 7.67,-1.62 11.5,-3.08c5.75,-2.2 11.41,-5.53 16.06,-10.53c2.32,-2.5 4.38,-5.41 6.02,-8.72c1.66,-3.31 2.91,-7.01 3.68,-11.09c0.66,-3.46 -1.61,-6.79 -5.06,-7.44zm54.43,-203.12c0,0 -33.28,-32.33 0,-60.36c35.59,35.6 35.59,35.6 35.59,35.6l0,20.22l-35.59,4.54z" fill="#fff" id="svg_86"/>
        <path d="m3225.41,3311.41c0,0 33.27,-32.33 0,-60.36c-35.6,35.6 -35.6,35.6 -35.6,35.6l0,20.22l35.6,4.54z" fill="#fff" id="svg_87"/>
    </g>
    <path d="m624.1,2838.15c-3.77,30.03 -41.13,29.71 -90.83,18.94c-32.69,-11.77 -61.92,-24.98 -88.43,-49.02c-40.3,-36.56 -68.22,-84.61 -93.03,-133.05c-24.83,-48.42 -47.42,-98.43 -79.67,-142.27c-32.68,-44.42 -74.38,-81.29 -111.33,-122.21c-36.96,-40.93 -70.15,-88.06 -80.08,-142.31c-3.12,-17.02 -2.74,-37.27 10.64,-48.25c1.34,-1.1 2.74,-2.06 4.17,-2.87c0.63,0.87 1.26,1.76 1.94,2.67c34.01,47.3 111.42,148.82 197.74,221.89c116.1,98.26 257.17,222.13 314.05,340.66c12.02,25.02 16.42,43.13 14.83,55.82z" fill="#6cbc39" id="svg_88"/>
    <path d="m624.1,2838.15c-3.77,30.03 -41.13,29.71 -90.83,18.94c-32.69,-11.77 -61.92,-24.98 -88.43,-49.02c-40.3,-36.56 -68.22,-84.61 -93.03,-133.05c-24.83,-48.42 -47.42,-98.43 -79.67,-142.27c-32.68,-44.42 -74.38,-81.29 -111.33,-122.21c-36.96,-40.93 -70.15,-88.06 -80.08,-142.31c-3.12,-17.02 -2.74,-37.27 10.64,-48.25c1.34,-1.1 2.74,-2.06 4.17,-2.87c0.63,0.87 1.26,1.76 1.94,2.67c3.82,50.5 22,111.44 75.73,165.17c118.24,118.23 281.91,271.09 326.43,366.72c22.45,48.23 76.45,73.39 124.46,86.48z" fill="#0d9214" id="svg_89"/>
    <path d="m694.96,2854.56c-9.43,-25.17 -34.47,-47.05 -56.87,-60.44c-53.03,-31.72 -119.08,-32.9 -180.11,-23.21c-61.04,9.69 -120.35,29.23 -181.78,35.96c-39.09,4.28 -79.13,3.4 -116.83,14.57c-56.87,16.85 -104.53,62.16 -124.24,118.11c-4.82,13.66 -7.7,29.93 0.68,41.74c0.44,0.63 0.91,1.22 1.4,1.79c12.29,-17.92 24.51,-35.34 42.64,-49.12c95.98,-74 213.92,-82.1 328.4,-64.75c93.1,13.86 180.27,48.09 273.86,41.63c11.33,-17.07 20.51,-35.84 12.85,-56.28z" fill="#86c546" id="svg_90"/>
    <path d="m299.34,2924.77c-124.28,-21.24 -214.55,36.93 -251.01,66.38c7.25,3.22 15.78,4.33 23.8,4.31c33.25,-0.11 64.71,-14.17 97.39,-20.31c62.76,-11.78 126.72,5.96 189.33,18.51c64.7,12.97 132.29,20.37 196.23,4.02c45.3,-11.59 88.65,-36.75 117.71,-73.85c-87.12,21.77 -233.82,24.79 -373.45,0.94z" fill="#0d9214" id="svg_91"/>
    <path d="m682.11,2910.84c-93.59,6.46 -180.75,-27.77 -273.86,-41.63c-114.48,-17.35 -232.42,-9.26 -328.4,64.75c-18.13,13.78 -30.35,31.2 -42.64,49.12c3.01,3.56 6.84,6.18 11.12,8.07c36.46,-29.45 126.73,-87.62 251.01,-66.38c139.63,23.85 286.33,20.83 373.45,-0.94c2.14,-2.72 4.2,-5.51 6.18,-8.37c1.06,-1.52 2.11,-3.07 3.14,-4.62z" fill="#6cbc39" id="svg_92"/>
    <g id="svg_93">
        <path d="m1157.44,2681.5c-36.61,60.35 -114.78,133.78 -182.85,204.94c-45.34,47.4 -86.22,93.81 -107.31,134.68c-37.99,73.63 -47.22,125.56 -49.42,148.85c-17.07,-4.26 -33.27,-8.49 -48.49,-12.75c-1.23,-0.33 -2.44,-0.68 -3.65,-1.02c-18.98,-5.35 -36.62,-11.52 -53.05,-18.6c-54.21,-23.28 -95.45,-56.16 -129.46,-100.59c-0.75,-5.12 -1.13,-10.42 -1.13,-15.89c0,0 44.5,-59.35 95.61,-189.59c51.11,-130.24 103.86,-334.67 270.37,-408.86c166.51,-74.19 232.46,-115.4 276.98,-115.4c44.5,0 -6.61,273.67 -67.6,374.23z" fill="#f8877f" id="svg_94"/>
        <path d="m987.33,2513.5c0,0 -60.47,8.57 -91.2,26.32s11.51,-34.09 39.57,-50.29c28.06,-16.2 114.67,-59.35 114.67,-59.35l-63.04,83.32zm-12.74,372.93c-45.34,47.41 -86.22,93.82 -107.31,134.69c-37.99,73.63 -47.22,125.56 -49.42,148.85c-17.07,-4.26 -33.27,-8.49 -48.49,-12.75c7.88,-49.58 28.7,-126.28 83.76,-181.34c49.58,-49.59 89.46,-72.35 121.46,-89.45zm-105.29,-83.93c0,0 114.86,4.23 100.28,54.46c-89.11,16.7 -100.28,-23.4 -100.28,-54.46z" fill="#ea716e" id="svg_95"/>
        <path d="m2273.55,2782.33c0,0 39.56,-62.99 64.29,-13.03c24.73,49.95 -143.59,410.35 -236.78,464.15c-93.19,53.8 172.49,-451.12 172.49,-451.12z" fill="#f8877f" id="svg_96"/>
        <path d="m1890.12,3261.72l-982.09,-392.04c-63.25,-25.25 -73.09,-103.6 -23.04,-174.32l409.48,-578.52c44.15,-62.37 128.23,-96 188.69,-75.68l934.16,313.98c67.89,22.82 91.75,97.08 52.35,166.55l-367.12,647.28c-45.09,79.49 -140.7,121.38 -212.43,92.75z" fill="#22320b" id="svg_97"/>
        <path d="m1890.12,3224.43l-982.09,-392.04c-63.25,-25.25 -73.09,-103.6 -23.04,-174.31l409.48,-578.53c44.15,-62.37 128.23,-96 188.69,-75.68l934.16,313.98c67.89,22.82 91.75,97.08 52.35,166.55l-367.12,647.29c-45.09,79.49 -140.7,121.38 -212.43,92.74z" fill="#cfe6af" id="svg_98"/>
        <path d="m1938.64,3183.73c-10.87,0 -20.99,-1.84 -30.09,-5.47l-982.08,-392.05c-11.3,-4.51 -18.36,-12.03 -21.61,-22.99c-6.06,-20.52 1.88,-49.8 20.72,-76.42l409.47,-578.52c25.26,-35.69 70.5,-60.61 110.02,-60.61c8.19,0 15.68,1.12 22.25,3.33l934.16,313.98c16.57,5.57 28.26,16.2 33.83,30.75c7.03,18.4 3.79,41.77 -8.9,64.14l-367.11,647.29c-25.57,45.08 -75.19,76.57 -120.66,76.57z" fill="#fff" id="svg_99"/>
        <polygon fill="#00a3cc" id="svg_100" points="1964.02197265625,2392.134033203125 1879.845947265625,2363.402099609375 1918.574951171875,2304.1298828125 2002.617919921875,2332.41796875 "/>
        <polygon fill="#00a3cc" id="svg_101" points="2114.6640625,2443.552978515625 2028.83203125,2414.256103515625 2067.323974609375,2354.197021484375 2153.012939453125,2383.0400390625 "/>
        <polygon fill="#00a3cc" id="svg_102" points="2268.29296875,2495.991943359375 2180.756103515625,2466.113037109375 2218.991943359375,2405.248046875 2306.376953125,2434.660888671875 "/>
        <path d="m2211,2563.97c-40.26,-0.96 -49.81,30.68 -84.55,32.07c-34.68,1.39 -74.92,35.49 -113.04,48.31c-38.1,12.82 -85.12,11.09 -163.23,-50.73c-40.02,-31.67 -79.05,-29.68 -107.39,-20.47l-38.68,59.21l391.28,142.08l130.31,-209.85c-4.53,-0.28 -9.42,-0.5 -14.7,-0.62z" fill="#93d53d" id="svg_103"/>
        <path d="m1850.18,2593.62c78.11,61.82 125.12,63.55 163.23,50.73c38.12,-12.82 78.36,-46.92 113.03,-48.31c34.75,-1.39 44.3,-33.04 84.56,-32.07c5.28,0.12 10.17,0.34 14.7,0.62l20.77,-33.46l-388.81,-133.77l-114.87,175.8c28.34,-9.22 67.37,-11.21 107.39,20.46z" fill="#5aabda" id="svg_104"/>
        <polygon fill="#86c546" id="svg_105" points="2059.81396484375,2826.112060546875 1194.7239990234375,2508.34912109375 1208.29296875,2488.7880859375 2072.964111328125,2804.94189453125 "/>
        <polygon fill="#5aabda" id="svg_106" points="1181.573974609375,2652.297119140625 1112.8609619140625,2626.35498046875 1167.969970703125,2546.9150390625 1236.571044921875,2572.341064453125 "/>
        <polygon fill="#5aabda" id="svg_107" points="1103.177978515625,2766.26904296875 1034.31201171875,2739.5869140625 1090.2669677734375,2658.926025390625 1159.0240478515625,2685.080078125 "/>
        <polygon fill="#5aabda" id="svg_108" points="1288.0469970703125,2692.493896484375 1218.3280029296875,2666.173095703125 1273.2650146484375,2585.94091796875 1342.864990234375,2611.738037109375 "/>
        <polygon fill="#5aabda" id="svg_109" points="1209.9000244140625,2807.616943359375 1140.0169677734375,2780.5419921875 1195.802978515625,2699.069091796875 1265.5689697265625,2725.60693359375 "/>
        <path d="m1482.08,2717.86c-16.14,24.28 -50.69,35.91 -77.05,25.94c-26.27,-9.92 -34.33,-37.51 -18.15,-61.57c16.13,-23.98 50.36,-35.51 76.57,-25.8c26.31,9.75 34.71,37.24 18.63,61.43zm142.72,53.43c-16.05,24.59 -50.95,36.33 -77.82,26.17c-26.77,-10.12 -35.31,-38.11 -19.2,-62.49c16.05,-24.3 50.62,-35.93 77.34,-26.03c26.81,9.94 35.68,37.83 19.68,62.35zm-216.63,57.78c-16.37,24.64 -51.18,36.34 -77.6,26.1c-26.33,-10.2 -34.25,-38.3 -17.83,-62.72c16.38,-24.34 50.84,-35.94 77.12,-25.96c26.37,10.02 34.63,38.02 18.31,62.58zm143.09,54.9c-16.29,24.97 -51.45,36.78 -78.39,26.34c-26.84,-10.4 -35.23,-38.92 -18.88,-63.66c16.29,-24.67 51.11,-36.38 77.89,-26.2c26.89,10.21 35.62,38.64 19.38,63.52z" fill="#f68624" id="svg_110"/>
        <path d="m1713.97,2257.93c-16.94,-20.18 -40.82,-36.41 -70.86,-46.52c-6.48,-2.18 -13.08,-4.01 -19.77,-5.52l-84.29,159.27l174.92,-107.23z" fill="#170d10" id="svg_111"/>
        <path d="m1377.53,2290.59c-3.84,4.63 -7.48,9.41 -10.9,14.35c-58.77,84.98 -29.95,182.49 66.11,217.3c30.26,10.96 63.53,14.35 96.79,11.12l9.52,-168.2l-161.52,-74.57z" fill="#ef4821" id="svg_112"/>
        <path d="m1739.92,2371.65l-200.87,-6.49l55.6,153.37c49.1,-17.81 93.06,-49.66 120.9,-91.73c12.03,-18.17 20.06,-36.78 24.37,-55.15z" fill="#f37e92" id="svg_113"/>
        <path d="m1739.92,2371.65c9.85,-41.96 0.21,-82.57 -25.95,-113.72l-174.92,107.23l200.87,6.49z" fill="#bcd845" id="svg_114"/>
        <path d="m1623.34,2205.89c-86.19,-19.46 -188.72,15.75 -245.81,84.7l161.52,74.57l84.29,-159.27z" fill="#00a3cc" id="svg_115"/>
        <path d="m1529.53,2533.36c22.04,-2.13 44.03,-7.18 65.12,-14.83l-55.6,-153.37l-9.52,168.2z" fill="#3ba5e2" id="svg_116"/>
        <path d="m1652.85,2803.79c0,0 72.01,-30.84 95.95,1.47c24.12,32.54 45.16,40.98 69.16,38.33c24.03,-2.66 81.67,-7.3 102.35,20.07c20.8,27.55 81.46,38.5 81.46,38.5l-23.86,38.37l-332.51,-125.26l7.45,-11.48zm-53.19,81.91c0,0 64.93,-19.44 85.61,18.38c20.85,38.12 53.45,28.73 79.13,23.65c25.69,-5.09 75.6,2.99 93.59,35.02c18.11,32.25 89.61,26.52 89.61,26.52l-39.54,63.57l-333.41,-128.63l25.01,-38.51z" fill="#ffc413" id="svg_117"/>
        <path d="m1335.06,2108.28l-11.75,16.59l104.34,861.41l118.85,47.45l-138.19,-979.58c-28.32,9.61 -55.65,29.25 -73.25,54.13zm389.81,29.29l152.93,1028.41l30.75,12.28c9.1,3.63 19.22,5.47 30.09,5.47c45.47,0 95.08,-31.49 120.66,-76.57l173.79,-306.43l-133.05,-537.06l-375.17,-126.1z" fill="#fff" id="svg_118" opacity="0.4"/>
        <path d="m2258.71,2873.98c0,29.67 -38.33,102.62 -59.35,181.76c-9.92,37.38 -39.15,97.62 -72.71,157.84c-37.5,67.31 -80.41,134.58 -107.81,169.82c-34.58,44.46 -69.74,132.16 -89.39,194.1c-18.05,-6.16 -35.32,-12.52 -51.78,-19.05c-50.83,-20.2 -93.69,-42.09 -126.42,-64.75c-3.67,-2.55 -7.24,-5.1 -10.65,-7.67c-15.7,-11.78 -32.12,-23.1 -49.14,-33.97c36.69,-71.07 89.29,-177.42 97.74,-218.62c10.14,-49.45 -6.19,-31.66 -6.19,-132.35c4.24,-47.45 7.58,-151.16 55.3,-209.3c71.72,-87.37 80.78,-131.88 118.71,-131.88c37.92,0 44.4,46.52 23.83,93.07c-23.08,52.21 -27.1,140.69 -11.88,125.49c22.31,-22.33 57.86,-105.96 57.86,-105.96s39.95,-91.73 36.92,-149.76c-3.58,-68.54 10.34,-96.95 29.37,-102.34c19.04,-5.4 45.14,50.52 51.97,115.41c6.76,64.38 -31.56,206.58 -32.27,208.61c1.36,-2.25 87.93,-146.18 106.32,-184.21c18.55,-38.33 63.43,-87.27 83.37,-75.75c19.94,11.52 -43.8,159.84 -43.8,189.51z" fill="#f8877f" id="svg_119"/>
        <path d="m2126.65,3213.58c-37.5,67.31 -80.41,134.58 -107.81,169.82c-34.58,44.46 -69.74,132.16 -89.39,194.1c-18.05,-6.16 -35.32,-12.52 -51.78,-19.05c13.9,-36.43 39.8,-88.04 87.58,-158.89c64.29,-95.31 119.21,-147.09 161.4,-185.98z" fill="#ea716e" id="svg_120"/>
        <path d="m1126.89,2468.78c-78.63,46.49 -137.61,35.59 -184.55,55.15l-139.35,246.6c0,0 65.63,-76.63 189.77,-98.55c124.14,-21.92 241.15,-184.93 241.15,-209.77c0,-24.85 -28.38,-39.92 -107.02,6.57z" fill="#f8877f" id="svg_121"/>
        <path d="m2264.61,2845.94c0,0 -29.82,124.11 -47.53,153.4c67.18,-101.78 67.18,-188.05 67.18,-188.05l-19.65,34.65z" fill="#ea716e" id="svg_122"/>
    </g>
    <path d="m3907.66,1675.34c0,0 119.42,18.96 292.01,114.35c226.74,125.33 281.8,336.98 281.8,336.98s17.7,-131.69 17.7,-196.02s-151.67,-181.34 -364.87,-254.75c-175.87,-46.94 -226.64,-0.56 -226.64,-0.56z" fill="#bcd845" id="svg_123"/>
    <circle cx="4380.47" cy="2757.24" fill="#93c74b" id="svg_124" r="45.75"/>
    <circle cx="151.31" cy="2727.43" fill="#6cbc39" id="svg_125" r="54.9"/>
    <circle cx="151.31" cy="2095.99" fill="#86c546" id="svg_126" r="37.44"/>
    <path d="m4568.1,1856.09c0,0 17.97,189.54 -19.75,361.31c-28.06,127.8 -122.22,241.4 -89.8,282.96c76,97.44 163.75,46.08 199.7,-244.79s-19.62,-566.85 -90.15,-399.48z" fill="#93c74b" id="svg_127"/>
    <polygon fill="url(#a)" id="svg_128" points="3704.6259765625,2151.9951171875 4092.97509765625,1955.618896484375 4119.9921875,1975.7060546875 3744.77294921875,2151.9951171875 "/>
    <polygon fill="url(#b)" id="svg_129" points="3315.14306640625,1797.7110595703125 3645.0439453125,1699.136962890625 3667.99609375,1709.218994140625 3349.248046875,1797.7110595703125 "/>
    <polygon fill="url(#c)" id="svg_130" points="2973.3330078125,1686.302978515625 3165.43798828125,1647.0679931640625 3178.802001953125,1651.0810546875 2993.19189453125,1686.302978515625 "/>
    <g id="svg_131">
        <polygon fill="none" id="svg_132" points="1950.4951171875,1911.23291015625 1950.4951171875,1911.23291015625 1950.4951171875,1911.23291015625 "/>
        <path d="m2161.06,2039.17c-48.22,-15.94 -91.62,-20.18 -124.18,-20.18c-36.81,0 -59.79,5.41 -60.43,5.56c-5.91,1.4 -9.56,7.32 -8.16,13.22c1.4,5.9 7.32,9.55 13.21,8.16l0,0c0,0 0.01,-0.01 0.02,-0.01c0,0 0,0 0,0l0,0c0.32,-0.07 21.48,-4.96 55.36,-4.96c30.66,0 71.71,3.99 117.28,19.07c45.59,15.08 95.72,41.18 144.84,85.68c4.5,4.07 11.44,3.73 15.52,-0.77s3.73,-11.44 -0.77,-15.52c-51.47,-46.64 -104.48,-74.32 -152.69,-90.25zm232.72,-10.2c-21.97,-31.64 -47.02,-57.15 -73.74,-77.54c-40.09,-30.58 -83.9,-49.61 -126.82,-60.98c-42.92,-11.36 -84.99,-15.1 -121.94,-15.1c-36.45,0 -67.94,3.64 -90.4,7.29c-22.45,3.65 -35.87,7.32 -36.18,7.4c-5.85,1.6 -9.3,7.65 -7.7,13.5c1.61,5.85 7.64,9.29 13.49,7.69l0,0c0,0 0.01,0 0.01,0c0,0 0,0 0,0l0,0l0,0c0.21,-0.06 13.04,-3.53 34.48,-6.99c21.49,-3.47 51.62,-6.92 86.3,-6.92c47.3,-0.01 103.01,6.42 156.94,27.64c26.98,10.61 53.53,24.9 78.49,43.94c24.96,19.05 48.35,42.85 69.03,72.6c3.46,4.99 10.3,6.22 15.28,2.76s6.22,-10.31 2.76,-15.29zm-443.29,-117.74l0,0l0,0l0,0z" fill="#fff" id="svg_133"/>
    </g>
    </g>
    </g>
</svg>