<svg width="48" height="47" viewBox="0 0 48 47" fill="none" xmlns="http://www.w3.org/2000/svg">
<path d="M19.4766 33.6562C22.9453 33.6562 26.0234 32.5312 28.7109 30.2812C30.6484 28.5469 32.0391 26.5 32.8828 24.1406C33.4453 22.5312 33.7266 21.0156 33.7266 19.5938V18.7031C34.0078 18.5469 34.4688 18.1484 35.1094 17.5078C35.5938 16.9766 35.9688 16.5156 36.2344 16.125H36.2109C34.9297 16.6562 33.9922 16.9219 33.3984 16.9219V16.875C33.6016 16.7656 33.9531 16.4922 34.4531 16.0547C34.9844 15.3984 35.3438 14.7578 35.5312 14.1328C34.875 14.5234 34.2031 14.8359 33.5156 15.0703C32.8594 15.2578 32.4766 15.3516 32.3672 15.3516C31.2578 14.3203 30.0391 13.8047 28.7109 13.8047C27.3828 13.8047 26.2109 14.2812 25.1953 15.2344C24.1797 16.2188 23.6719 17.4062 23.6719 18.7969C23.6719 19.1406 23.7188 19.5234 23.8125 19.9453C23.4219 19.9453 22.6875 19.8594 21.6094 19.6875C19.7812 19.2188 18.1797 18.5547 16.8047 17.6953C15.7266 17.0234 14.6094 16.0234 13.4531 14.6953C13.0156 15.5234 12.7969 16.3281 12.7969 17.1094C12.7969 18.3594 13.1875 19.4766 13.9688 20.4609C14.3594 20.9141 14.6875 21.2109 14.9531 21.3516V21.3984C14.2812 21.3984 13.5469 21.1953 12.75 20.7891C12.75 22.1953 13.2578 23.4141 14.2734 24.4453C14.9141 25.0078 15.4922 25.375 16.0078 25.5469C16.3984 25.6719 16.6328 25.7344 16.7109 25.7344C16.7109 25.7656 16.5234 25.8203 16.1484 25.8984H15.5625H15.375C15.125 25.8984 14.8203 25.875 14.4609 25.8281C14.8828 27 15.5859 27.8984 16.5703 28.5234C17.4297 29.0547 18.2969 29.3203 19.1719 29.3203C18.6562 29.7109 18.1797 30.0234 17.7422 30.2578C16.1953 31.0703 14.6484 31.4766 13.1016 31.4766C12.5547 31.4766 12.1094 31.4531 11.7656 31.4062C14.1094 32.9062 16.6797 33.6562 19.4766 33.6562ZM24 46.9219C20.9062 46.9219 17.9531 46.3359 15.1406 45.1641C12.3281 44.0078 9.82031 42.3281 7.61719 40.125C5.41406 37.9219 3.72656 35.4141 2.55469 32.6016C1.39844 29.7891 0.820312 26.8359 0.820312 23.7422C0.820312 20.6484 1.39844 17.6953 2.55469 14.8828C3.72656 12.0703 5.41406 9.5625 7.61719 7.35938C9.82031 5.15625 12.3281 3.47656 15.1406 2.32031C17.9531 1.14844 20.9062 0.5625 24 0.5625C27.0938 0.5625 30.0469 1.14844 32.8594 2.32031C35.6719 3.47656 38.1797 5.15625 40.3828 7.35938C42.5859 9.5625 44.2656 12.0703 45.4219 14.8828C46.5938 17.6953 47.1797 20.6484 47.1797 23.7422C47.1797 26.8359 46.5938 29.7891 45.4219 32.6016C44.2656 35.4141 42.5859 37.9219 40.3828 40.125C38.1797 42.3281 35.6719 44.0078 32.8594 45.1641C30.0469 46.3359 27.0938 46.9219 24 46.9219Z" fill="white"/>
</svg>
