<svg width="48" height="47" viewBox="0 0 48 47" fill="none" xmlns="http://www.w3.org/2000/svg">
<path d="M35.2266 18.0938C35.0859 17.5938 34.8359 17.1641 34.4766 16.8047C34.1172 16.4297 33.6797 16.1719 33.1641 16.0312C32.6797 15.9062 31.9453 15.8125 30.9609 15.75C29.9766 15.6875 28.9531 15.6406 27.8906 15.6094C26.8281 15.5781 25.9141 15.5547 25.1484 15.5391C24.3828 15.5234 24 15.5156 24 15.5156C24 15.5156 23.6094 15.5234 22.8281 15.5391C22.0625 15.5547 21.1484 15.5781 20.0859 15.6094C19.0234 15.625 18 15.6719 17.0156 15.75C16.0312 15.8125 15.2969 15.8984 14.8125 16.0078C14.3125 16.1484 13.875 16.4062 13.5 16.7812C13.1406 17.1562 12.8906 17.5938 12.75 18.0938C12.625 18.5781 12.5312 19.1406 12.4688 19.7812C12.4062 20.4062 12.3594 21.0234 12.3281 21.6328C12.2969 22.2266 12.2734 22.7344 12.2578 23.1562C12.2578 23.5625 12.2578 23.7656 12.2578 23.7656C12.2578 23.7656 12.2578 23.9688 12.2578 24.375C12.2734 24.7812 12.2969 25.2891 12.3281 25.8984C12.3594 26.5078 12.4062 27.125 12.4688 27.75C12.5312 28.375 12.625 28.9219 12.75 29.3906C12.8906 29.9062 13.1406 30.3516 13.5 30.7266C13.8594 31.0859 14.2969 31.3359 14.8125 31.4766C15.3125 31.6016 16.0469 31.6953 17.0156 31.7578C18 31.8203 19.0234 31.8672 20.0859 31.8984C21.1641 31.9297 22.0859 31.9531 22.8516 31.9688C23.6172 31.9688 24 31.9688 24 31.9688C24 31.9688 24.3828 31.9688 25.1484 31.9688C25.9141 31.9531 26.8281 31.9375 27.8906 31.9219C28.9531 31.8906 29.9766 31.8438 30.9609 31.7812C31.9453 31.7031 32.6797 31.6094 33.1641 31.5C33.6797 31.3594 34.1172 31.1094 34.4766 30.75C34.8359 30.375 35.0859 29.9297 35.2266 29.4141C35.3516 28.9453 35.4453 28.3984 35.5078 27.7734C35.5703 27.1328 35.6172 26.5156 35.6484 25.9219C35.6797 25.3125 35.6953 24.8047 35.6953 24.3984C35.7109 23.9766 35.7188 23.7656 35.7188 23.7656C35.7188 23.7656 35.7109 23.5625 35.6953 23.1562C35.6953 22.75 35.6797 22.2422 35.6484 21.6328C35.6328 21.0234 35.5859 20.4062 35.5078 19.7812C35.4453 19.1406 35.3516 18.5781 35.2266 18.0938ZM27.75 23.7656L21.6562 27.2578V20.2266L27.75 23.7656ZM24 46.9219C20.9062 46.9219 17.9531 46.3359 15.1406 45.1641C12.3281 44.0078 9.82031 42.3281 7.61719 40.125C5.41406 37.9219 3.72656 35.4141 2.55469 32.6016C1.39844 29.7891 0.820312 26.8359 0.820312 23.7422C0.820312 20.6484 1.39844 17.6953 2.55469 14.8828C3.72656 12.0703 5.41406 9.5625 7.61719 7.35938C9.82031 5.15625 12.3281 3.47656 15.1406 2.32031C17.9531 1.14844 20.9062 0.5625 24 0.5625C27.0938 0.5625 30.0469 1.14844 32.8594 2.32031C35.6719 3.47656 38.1797 5.15625 40.3828 7.35938C42.5859 9.5625 44.2656 12.0703 45.4219 14.8828C46.5938 17.6953 47.1797 20.6484 47.1797 23.7422C47.1797 26.8359 46.5938 29.7891 45.4219 32.6016C44.2656 35.4141 42.5859 37.9219 40.3828 40.125C38.1797 42.3281 35.6719 44.0078 32.8594 45.1641C30.0469 46.3359 27.0938 46.9219 24 46.9219Z" fill="white"/>
</svg>
